<!-- Generated by IcoMoon.io -->
<svg version="1.1" xmlns="http://www.w3.org/2000/svg" width="1024" height="1024" viewBox="0 0 1024 1024">
<title></title>
<g id="icomoon-ignore">
</g>
<path fill="#000" d="M224 400c26.464 0 48-21.536 48-48s-21.536-48-48-48-48 21.536-48 48 21.536 48 48 48zM224 336c8.816 0 16 7.184 16 16s-7.184 16-16 16-16-7.184-16-16 7.184-16 16-16z"></path>
<path fill="#000" d="M192 784c-26.464 0-48 21.536-48 48s21.536 48 48 48 48-21.536 48-48-21.536-48-48-48zM192 848c-8.816 0-16-7.184-16-16s7.184-16 16-16 16 7.184 16 16-7.184 16-16 16z"></path>
<path fill="#000" d="M368 912h32v32h-32z"></path>
<path fill="#000" d="M592 128c0 8.837-7.163 16-16 16s-16-7.163-16-16c0-8.837 7.163-16 16-16s16 7.163 16 16z"></path>
<path fill="#000" d="M592 832c0 8.837-7.163 16-16 16s-16-7.163-16-16c0-8.837 7.163-16 16-16s16 7.163 16 16z"></path>
<path fill="#000" d="M824.896 712.896c-4.096 0-8.192 1.568-11.312 4.688-6.256 6.256-6.256 16.384 0 22.624 3.12 3.12 7.216 4.688 11.312 4.688s8.192-1.568 11.312-4.688c6.256-6.256 6.256-16.384 0-22.624-3.12-3.12-7.216-4.688-11.312-4.688z"></path>
<path fill="#000" d="M944 480c0 8.837-7.163 16-16 16s-16-7.163-16-16c0-8.837 7.163-16 16-16s16 7.163 16 16z"></path>
<path fill="#000" d="M824.896 215.104c-4.096 0-8.192 1.568-11.312 4.688-6.256 6.256-6.256 16.384 0 22.624 3.12 3.12 7.216 4.688 11.312 4.688s8.192-1.568 11.312-4.688c6.256-6.256 6.256-16.384 0-22.624-3.12-3.136-7.216-4.688-11.312-4.688z"></path>
<path fill="#000" d="M976 368h-17.424c-18.624 0-35.264-11.12-42.816-29.344-7.12-17.2-3.216-36.832 9.952-49.984l12.32-12.32c12.48-12.48 12.48-32.768 0-45.248l-113.136-113.136c-12.096-12.096-33.152-12.096-45.248 0l-12.192 12.192c-13.232 13.248-32.96 17.168-51.024 9.696-17.264-7.152-28.432-23.856-28.432-42.544v-17.312c0-17.648-14.352-32-32-32h-160c-9.584 0-18.080 4.32-23.952 11.008-20.528-26.128-52.32-43.008-88.048-43.008h-224c-79.392 0-144 64.608-144 144v139.376c0 78.24 38.272 151.744 102.368 196.624l30.528 21.376c-2.976 8.368-4.896 17.232-4.896 26.624v121.376l-6.304 6.304c-37.2 37.2-57.696 86.672-57.696 139.312 0 108.624 88.384 197.008 197.008 197.008h490.992c44.112 0 80-35.888 80-80v-16c0-17.648-14.352-32-32-32h-70.112l-1.968-3.936c-8.656-17.312-26.048-28.064-45.392-28.064-2.832 0-5.616 0.288-8.368 0.752 4.048-12.736 13.648-23.376 27.184-28.992 17.2-7.104 36.816-3.216 49.984 9.952l12.32 12.32c12.464 12.48 32.784 12.48 45.248 0l113.136-113.136c12.48-12.48 12.48-32.768 0-45.248l-12.192-12.192c-13.248-13.232-17.168-32.976-9.696-51.024 7.152-17.264 23.856-28.432 42.544-28.432h17.312c17.648 0 32-14.352 32-32v-160c0-17.648-14.352-32-32-32zM628.064 910.768l21.728 65.232h-172.96l-18.688-84.112zM361.328 881.136l63.216 7.024 19.52 87.84h-130.16zM428.56 856.416l-6.096-39.6c4.384 0.544 8.816 1.552 13.216 3.376 16.496 6.832 27.296 22.432 28.16 40.128zM395.616 852.752l-33.984-3.776-39.856-66.432c-23.088-38.496-54.832-70.624-92.112-94.544h17.072c71.584 0 131.44 51.344 142.336 122.096zM246.736 656h-70.736v-112c0-22.624 15.776-41.504 36.864-46.56l5.456 54.528c4.096 41.056 38.336 72.032 79.6 72.032h6.080v41.552c-18-6.112-37.216-9.552-57.264-9.552zM224 272c44.112 0 80 35.888 80 80s-35.888 80-80 80-80-35.888-80-80 35.888-80 80-80zM676.272 624h-52.272v-128h16c26.464 0 48-21.536 48-48s-21.536-48-48-48-48 21.536-48 48v16h-32v-16c0-26.464-21.536-48-48-48-5.456 0-10.608 1.104-15.488 2.784l-9.792-73.504c25.184-15.168 53.392-24.064 82.384-25.168 48.512-1.952 94.176 15.584 128.944 49.056 34.784 33.504 53.952 78.544 53.952 126.832 0 57.52-28.816 111.248-75.728 144zM656 688h-160v-32h160zM512 432c8.816 0 16 7.184 16 16v16h-16c-8.816 0-16-7.184-16-16s7.184-16 16-16zM592 624h-32v-128h32zM624 464v-16c0-8.816 7.184-16 16-16s16 7.184 16 16-7.184 16-16 16zM464 448v-22.112l7.76-3.872c-4.864 7.504-7.76 16.4-7.76 25.984 0 26.464 21.536 48 48 48h16v128h-52.832c-0.688-0.48-1.328-1.008-2-1.504 13.152-3.968 22.832-16.048 22.832-30.496v-64c0-17.648-14.352-32-32-32zM464 528v64h-166.080c-24.768 0-45.312-18.592-47.76-43.232l-8.624-86.288c13.392-2.112 26-6.544 37.392-12.976l7.296 51.008c2.208 15.68 15.824 27.488 31.648 27.488zM426.624 624c11.328 11.728 23.68 22.32 37.376 31.088v72.976c-48.4-21.776-89.76-57.632-118.672-104.064zM496 720h160v19.952c-25.312 7.808-52.16 12.048-80 12.048-27.648 0-54.512-4.224-80-12zM688 656v-0.928c59.44-38.096 96-104.352 96-175.072 0-57.056-22.656-110.288-63.76-149.872-41.104-39.568-95.216-60.016-152.352-57.984-29.84 1.136-59.040 9.024-85.744 22.784l-8.864-66.448c32.592-13.344 67.008-20.48 102.72-20.48 149.984 0 272 122.016 272 272 0 110.032-65.792 204.8-160 247.584zM446.8 272h-78.8v32h83.056l11.568 86.8-30.624 15.312v89.888h-114.128l-10-70.016c17.44-19.76 28.128-45.616 28.128-73.984 0-56.304-41.808-102.912-96-110.72v-4.016c0-11.872 2.416-23.536 6.784-34.48 7.744 3.328 16.256 5.216 25.216 5.216h144c7.616 0 14.832-1.408 21.808-3.408zM160 48h224c44.112 0 80 35.888 80 80 0 26.464-21.536 48-48 48h-144c-17.648 0-32-14.352-32-32s14.352-32 32-32v-32c-35.296 0-64 28.704-64 64 0 14.4 4.96 27.552 13.008 38.256-3.344 6.832-6.272 13.824-8.32 21.104l-164.112-54.704c5.696-56.448 53.488-100.656 111.424-100.656zM136.72 469.776c-55.552-38.896-88.72-102.592-88.72-170.4v-117.168l160.112 53.376c0 0.56-0.112 1.12-0.112 1.68v4.016c-54.192 7.808-96 54.416-96 110.72 0 56.8 42.544 103.744 97.408 110.944l0.256 2.512c-17.376 3.168-32.672 11.968-44.208 24.432zM112 810.992c0-44.080 17.168-85.52 48.336-116.688l3.84-3.84c54.272 20.416 100.24 58.672 130.176 108.56l39.424 65.68-55.664 111.296h-1.088c-91.008 0-165.024-74.016-165.024-165.008zM715.296 890.368l10.816 21.632h89.888v16c0 26.464-21.536 48-48 48h-84.464l-24.496-73.472 29.072-19.376c9.056-6.032 22.32-2.512 27.184 7.216zM976 560h-17.312c-31.68 0-59.984 18.912-72.416 48.944-12.128 29.312-5.472 62.72 16.944 85.136l12.192 12.192-113.136 113.136-12.32-12.32c-22.336-22.336-55.632-28.992-85.872-16.464-29.2 12.096-48.080 40.336-48.080 71.952v3.52l-20.016 13.344-139.984-15.536v-1.328c0-31.616-18.88-59.856-49.104-72.384-9.792-4.032-20.288-5.744-30.784-5.616-12.464-44.992-41.552-81.984-80.096-104.528v-13.424c56.88 73.488 144.432 117.376 239.984 117.376 167.632 0 304-136.368 304-304s-136.368-304-304-304c-37.072 0-72.928 6.896-107.088 19.808l-0.992-7.456c17.040-14.688 28.080-36.144 28.080-60.352 0-5.664-0.56-11.184-1.376-16.624 0.848-4.592 1.376-9.264 1.376-13.952v-17.424h160v17.312c0 31.68 18.912 59.984 48.944 72.416 29.312 12.144 62.72 5.488 85.136-16.944l12.192-12.192 113.136 113.136-12.32 12.32c-22.336 22.336-28.976 55.632-16.464 85.872 12.096 29.2 40.336 48.080 71.952 48.080h17.424z"></path>
</svg>
