<!-- Generated by IcoMoon.io -->
<svg version="1.1" xmlns="http://www.w3.org/2000/svg" width="1024" height="1024" viewBox="0 0 1024 1024">
<title></title>
<g id="icomoon-ignore">
</g>
<path fill="#000" d="M22 22v980h980v-980h-980zM960.2 960.2h-896.4v-706.8h896.6v706.8zM63.8 211.8v-148h896.6v148h-896.6z"></path>
<path fill="#000" d="M843.6 115.8h45.8v41.8h-45.8v-41.8z"></path>
<path fill="#000" d="M728.8 115.8h45.8v41.8h-45.8v-41.8z"></path>
<path fill="#000" d="M614.2 115.8h45.8v41.8h-45.8v-41.8z"></path>
<path fill="#000" d="M512 449.4c127.2 0 231.4 104.2 231.4 231.4h41.8c0-150.2-123-273.2-273.2-273.2s-273.2 123-273.2 273.2h41.8c0-127 104.2-231.4 231.4-231.4z"></path>
<path fill="#000" d="M512 655.8l-40.8-132-39.8 12.4 40.6 131.2c-21 13.2-35 36.6-35 63.6 0 41.8 33.4 75 75 75s75-33.4 75-75c0-41.8-33.2-75-75-75.2zM512 762.2c-18.8 0-33.4-14.6-33.4-33.4s14.6-33.4 33.4-33.4c18.8 0 33.4 16.6 33.4 33.4 0 18.8-14.6 33.4-33.4 33.4z"></path>
<path fill="#000" d="M134.6 115.8h362.8v41.8h-362.8v-41.8z"></path>
</svg>
