<!-- Generated by IcoMoon.io -->
<svg version="1.1" xmlns="http://www.w3.org/2000/svg" width="1024" height="1024" viewBox="0 0 1024 1024">
<title></title>
<g id="icomoon-ignore">
</g>
<path fill="#000" d="M378 469.976h39c0 8.286 6.716 15 15 15s15-6.714 15-15v-15c0-8.286-6.716-15-15-15h-54c-8.284 0-15 6.714-15 15s6.716 15 15 15z"></path>
<path fill="#000" d="M592 484.976c8.286 0 15-6.714 15-15h39c8.286 0 15-6.714 15-15s-6.714-15-15-15h-54c-8.286 0-15 6.714-15 15v15c0 8.286 6.714 15 15 15z"></path>
<path fill="#000" d="M257.372 538.69c7.15 134.256 118.622 241.286 254.628 241.286s247.478-107.030 254.628-241.286c39.92-6.958 70.372-41.834 70.372-83.714 0-23.324-9.448-44.48-24.712-59.854 14.646-7.432 24.712-22.632 24.712-40.146 0-23.138-17.558-42.248-40.048-44.722-0.982-61.312-21.080-119.332-58.296-168.070-34.628-45.354-82.828-79.73-136.656-97.684v-20.072c0-6.844-4.632-12.82-11.262-14.528-51.172-13.168-106.304-13.168-157.478 0-6.628 1.708-11.26 7.684-11.26 14.528v20.072c-53.826 17.954-102.028 52.332-136.658 97.686-37.214 48.738-57.314 106.758-58.296 168.070-22.49 2.474-40.048 21.584-40.048 44.722 0 17.516 10.066 32.716 24.712 40.148-15.264 15.374-24.712 36.528-24.712 59.852 0.002 41.878 30.454 76.754 70.374 83.712zM602 76.342c96.538 36.474 162.83 129.462 164.896 233.634h-164.896zM422 76.342v78.634c0 8.286 6.716 15 15 15s15-6.714 15-15v-118.676c39.244-8.398 80.754-8.398 120 0v273.676h-120v-95c0-8.286-6.716-15-15-15s-15 6.714-15 15v95h-164.896c2.066-104.172 68.356-197.16 164.896-233.634zM232 339.976h560c8.272 0 15 6.728 15 15s-6.728 15-15 15h-560c-8.272 0-15-6.728-15-15s6.728-15 15-15zM257 402.054v22.922c0 8.286 6.716 15 15 15s15-6.714 15-15v-25h450v25c0 8.286 6.714 15 15 15s15-6.714 15-15v-22.922c23.060 6.544 40 27.792 40 52.922 0 25.126-16.944 46.356-40 52.904v-22.904c0-8.286-6.714-15-15-15s-15 6.714-15 15v40c0 124.064-100.936 225-225 225-124.066 0-225-100.936-225-225v-40c0-8.286-6.716-15-15-15s-15 6.714-15 15v22.904c-23.056-6.548-40-27.778-40-52.904 0-25.128 16.94-46.376 40-52.922z"></path>
<path fill="#000" d="M451.394 574.87c16.188 16.19 37.712 25.106 60.606 25.106 22.892 0 44.418-8.916 60.608-25.104 5.858-5.86 5.858-15.356 0-21.214-5.86-5.856-15.356-5.856-21.214 0-10.522 10.524-24.512 16.318-39.392 16.318s-28.872-5.794-39.394-16.316c-5.856-5.86-15.354-5.858-21.212-0.002-5.86 5.86-5.86 15.356-0.002 21.212z"></path>
<path fill="#000" d="M889 809.976h-561.58c-6.192-17.458-22.864-30-42.42-30-11.516 0-22.032 4.354-30 11.496-7.968-7.142-18.484-11.496-30-11.496s-22.032 4.354-30 11.496c-7.968-7.142-18.484-11.496-30-11.496-5.258 0-10.306 0.916-15 2.58v-47.602c18.696-14.062 30-36.314 30-59.978v-60c0-8.286-6.716-15-15-15h-15v-45c0-8.286-6.716-15-15-15s-15 6.714-15 15v45h-30v-45c0-8.286-6.716-15-15-15s-15 6.714-15 15v45h-15c-8.284 0-15 6.714-15 15v60c0 23.664 11.304 45.916 30 59.978v47.602c-4.694-1.666-9.742-2.58-15-2.58-24.814 0-45 20.188-45 45v184c0 8.286 6.716 15 15 15h994c8.286 0 15-6.714 15-15v-64c0-74.44-60.56-135-135-135zM60 993.976h-30v-169c0-8.272 6.728-15 15-15s15 6.728 15 15zM127.488 713.946c-4.634 2.682-7.488 7.628-7.488 12.982v267.046h-30v-267.044c0-5.354-2.854-10.3-7.488-12.982-13.886-8.038-22.512-22.97-22.512-38.972v-45h90v45c0 16.002-8.626 30.934-22.512 38.97zM180 993.976h-30v-169c0-8.272 6.728-15 15-15s15 6.728 15 15zM240 993.976h-30v-169c0-8.272 6.728-15 15-15s15 6.728 15 15zM300 993.976h-30v-169c0-8.272 6.728-15 15-15s15 6.728 15 15zM497 993.976h-167v-154h83.692l83.308 85.12zM455.67 839.976h112.66l-56.33 57.554zM994 993.976h-467v-68.88l83.308-85.12h278.692c57.896 0 105 47.104 105 105z"></path>
</svg>
