<!-- Generated by IcoMoon.io -->
<svg version="1.1" xmlns="http://www.w3.org/2000/svg" width="1024" height="1024" viewBox="0 0 1024 1024">
<title></title>
<g id="icomoon-ignore">
</g>
<path fill="#000" d="M16 280h16v512c0 21.376 8.336 41.472 23.44 56.56 15.104 15.12 35.2 23.44 56.56 23.44h18.88l10.848 54.304c3.008 14.896 16.208 25.696 31.392 25.696h101.76c15.184 0 28.368-10.8 31.392-25.728l10.848-54.272h434.496c23.776 46.864 72.336 79.12 128.384 79.12 79.392 0 144-64.608 144-144 0-56.4-32.672-105.184-80-128.8v-398.32h16c8.832 0 16-7.168 16-16v-64c0-26.464-21.536-48-48-48h-48v-48c0-17.648-14.352-32-32-32h-128c-17.648 0-32 14.352-32 32v48h-416c-8.832 0-16 7.168-16 16s7.168 16 16 16h656c8.816 0 16 7.184 16 16v48h-912v-48c0-8.816 7.184-16 16-16h96c8.832 0 16-7.168 16-16s-7.168-16-16-16h-96c-26.464 0-48 21.536-48 48v64c0 8.832 7.168 16 16 16zM720 104h128v48h-128zM274.88 920l-101.76 0.016-9.6-48.016h120.976zM992 807.12c0 61.76-50.24 112-112 112s-112-50.24-112-112 50.24-112 112-112 112 50.24 112 112zM912 520h-48c-8.832 0-16 7.168-16 16s7.168 16 16 16h48v114.832c-10.304-2.352-20.992-3.712-32-3.712-79.392 0-144 64.608-144 144 0 11.328 1.456 22.288 3.936 32.88h-627.936c-12.816 0-24.864-4.992-33.952-14.064-9.056-9.056-14.048-21.104-14.048-33.936v-240h74.384l-8.368 15.072c-2.752 4.96-2.672 11.008 0.192 15.888 2.88 4.88 8.112 7.888 13.792 7.888h81.136v81.152c0 7.136 4.72 13.408 11.584 15.376 1.456 0.416 2.944 0.624 4.416 0.624 5.408 0 10.592-2.752 13.568-7.52l80.32-128.48h400.976c8.832 0 16-7.168 16-16s-7.168-16-16-16h-382.192c0.816-3.744 0.4-7.712-1.52-11.184-2.816-5.088-8.176-8.24-14-8.24h-81.152v-100.576c0-7.296-4.928-13.664-11.984-15.488-7.072-1.84-14.464 1.344-18 7.712l-70.992 127.776h-92.16v-240h848zM241.136 532.576h68.288l-52.288 83.648v-41.36c0-8.832-7.168-16-16-16h-69.952l53.952-97.104v54.832c0 8.816 7.168 15.984 16 15.984z"></path>
<path fill="#000" d="M816.88 807.12c0 34.8 28.32 63.12 63.12 63.12s63.12-28.32 63.12-63.12-28.32-63.12-63.12-63.12-63.12 28.32-63.12 63.12zM911.12 807.12c0 17.152-13.968 31.12-31.12 31.12s-31.12-13.968-31.12-31.12c0-17.168 13.968-31.12 31.12-31.12s31.12 13.968 31.12 31.12z"></path>
<path fill="#000" d="M304 440h256c8.832 0 16-7.168 16-16v-96c0-8.832-7.168-16-16-16h-256c-8.832 0-16 7.168-16 16v96c0 8.832 7.168 16 16 16zM320 344h224v64h-224z"></path>
<path fill="#000" d="M528 616h-192c-8.832 0-16 7.168-16 16s7.168 16 16 16h192c8.832 0 16-7.168 16-16s-7.168-16-16-16z"></path>
<path fill="#000" d="M528 680h-192c-8.832 0-16 7.168-16 16s7.168 16 16 16h192c8.832 0 16-7.168 16-16s-7.168-16-16-16z"></path>
<path fill="#000" d="M528 744h-192c-8.832 0-16 7.168-16 16s7.168 16 16 16h192c8.832 0 16-7.168 16-16s-7.168-16-16-16z"></path>
<path fill="#000" d="M688 424c26.464 0 48-21.536 48-48s-21.536-48-48-48-48 21.536-48 48 21.536 48 48 48zM688 360c8.816 0 16 7.184 16 16s-7.184 16-16 16-16-7.184-16-16 7.184-16 16-16z"></path>
<path fill="#000" d="M816 424c26.464 0 48-21.536 48-48s-21.536-48-48-48-48 21.536-48 48 21.536 48 48 48zM816 360c8.816 0 16 7.184 16 16s-7.184 16-16 16-16-7.184-16-16 7.184-16 16-16z"></path>
<path fill="#000" d="M816 536c0 8.837-7.163 16-16 16s-16-7.163-16-16c0-8.837 7.163-16 16-16s16 7.163 16 16z"></path>
<path fill="#000" d="M224 168c0 8.837-7.163 16-16 16s-16-7.163-16-16c0-8.837 7.163-16 16-16s16 7.163 16 16z"></path>
</svg>
