<!-- Generated by IcoMoon.io -->
<svg version="1.1" xmlns="http://www.w3.org/2000/svg" width="1024" height="1024" viewBox="0 0 1024 1024">
<title></title>
<g id="icomoon-ignore">
</g>
<path fill="#000" d="M730.536 0h-605.176c-64.953 0.084-117.589 52.72-117.673 117.673v603.781c0.084 64.953 52.72 117.589 117.673 117.673h184.915v-33.621h-184.915c-46.397-0.055-83.998-37.655-84.052-84.052v-284.382h107.957c9.962-0.729 17.449-9.395 16.72-19.359-0.141-1.921-0.586-3.808-1.322-5.587-14.94-33.999 0.509-73.672 34.508-88.612s73.672 0.509 88.612 34.508c7.575 17.239 7.575 36.865 0 54.104-4.152 8.687-0.475 19.095 8.212 23.247 2.246 1.074 4.699 1.654 7.186 1.702h107.957v100.863c-5.554-0.946-11.177-1.412-16.81-1.395-55.706-0.019-100.877 45.123-100.898 100.827-0.015 40.133 23.766 76.454 60.553 92.493l13.448-30.797c-34.054-14.814-49.652-54.428-34.84-88.482 10.687-24.571 34.943-40.45 61.736-40.421 9.265-0.002 18.426 1.933 26.897 5.682 8.508 3.713 18.418-0.174 22.131-8.683 0.925-2.118 1.402-4.404 1.404-6.716v-123.374h85.481c-0.956 5.552-1.435 11.177-1.429 16.81 0.101 47.897 33.783 89.158 80.69 98.845l6.724-32.932c-31.272-6.47-53.724-33.98-53.793-65.914-0.002-9.265 1.933-18.426 5.682-26.897 3.713-8.508-0.174-18.418-8.683-22.131-2.118-0.925-4.404-1.402-6.716-1.404h-107.957v-85.481c5.552 0.956 11.177 1.435 16.81 1.429 55.706 0 100.863-45.157 100.863-100.863s-45.157-100.863-100.863-100.863c-5.634-0.006-11.259 0.473-16.81 1.429v-85.481h285.778c46.397 0.055 83.998 37.655 84.052 84.052v285.778h-107.957c-9.284 0.004-16.806 7.535-16.802 16.819 0.002 2.311 0.479 4.598 1.404 6.716 3.749 8.47 5.684 17.632 5.682 26.897h33.621c0.006-5.634-0.473-11.259-1.429-16.81h102.292c9.284 0 16.81-7.527 16.81-16.81v-302.588c-0.084-64.953-52.72-117.589-117.673-117.673zM461.569 151.294c37.136 0 67.242 30.105 67.242 67.242s-30.105 67.242-67.242 67.242c-9.265 0.002-18.426-1.933-26.897-5.682-8.508-3.713-18.418 0.174-22.131 8.683-0.925 2.118-1.402 4.404-1.404 6.716v106.561h-85.363c0.843-5.096 1.28-10.25 1.311-15.415 0-0.303 0-0.572 0-0.874s0-0.353 0-0.521c0-55.706-45.157-100.863-100.863-100.863s-100.863 45.157-100.863 100.863c0 0.168 0 0.353 0 0.521s0 0.572 0 0.874c0.032 5.165 0.469 10.32 1.311 15.415h-85.363v-284.382c0.055-46.397 37.655-83.998 84.052-84.052h285.778v107.957c0.004 9.284 7.535 16.806 16.819 16.802 2.311-0.002 4.598-0.479 6.716-1.404 8.47-3.749 17.632-5.684 26.897-5.682z"></path>
<path fill="#000" d="M980.356 722.547l-141.325-97.316-54.281-145.024c-3.238-8.702-12.917-13.129-21.618-9.891-0.311 0.116-0.62 0.242-0.925 0.376l-109.268 48.33c-8.191 3.616-12.108 13.020-8.91 21.383 1.816 4.707 3.513 8.271 5.312 11.969s3.463 7.161 5.497 12.625c13.049 34.867-4.52 73.729-39.32 86.96-34.783 13.009-73.527-4.64-86.538-39.425-3.263-8.725-4.678-18.031-4.154-27.33 0.488-9.271-6.634-17.182-15.905-17.67-2.324-0.122-4.646 0.24-6.823 1.061l-116.799 43.993c-8.672 3.268-13.064 12.938-9.817 21.618l41.925 112.008c-5.558 1.013-11.015 2.519-16.306 4.505-52.312 19.494-78.915 77.704-59.421 130.016s77.704 78.915 130.016 59.421c5.386-2.007 10.591-4.469 15.558-7.363l30.057 80.287c3.257 8.695 12.944 13.102 21.639 9.845 0.011-0.004 0.019-0.008 0.029-0.011l166.558-62.753c10.462 22.488 29.715 39.679 53.239 47.54l10.624-31.94c-13.856-4.669-25.371-14.51-32.142-27.468l50.683-19.080c16.649 46.828 60.999 78.082 110.697 78.017v-33.621c-46.302-0.284-83.769-37.75-84.052-84.052 0-4.459-1.774-8.733-4.925-11.885l-58.534-58.534c-8.678-8.754-9.658-22.534-2.303-32.427 4.282-5.781 10.893-9.382 18.071-9.851 7.189-0.605 14.268 2.042 19.298 7.212l117.371 117.371 23.77-23.77-34.73-34.73c8.557-25.588 8.029-53.344-1.496-78.589l-31.503-84.136 101.586 69.948c13.465 9.452 21.488 24.869 21.501 41.32v217.141h33.621v-217.141c-0.023-27.47-13.444-53.201-35.958-68.94zM859.623 776.138c4.644 12.343 6.325 25.602 4.909 38.714l-54.567-54.55c-22.524-23.1-59.507-23.564-82.607-1.042-23.1 22.524-23.564 59.507-1.042 82.607 0.343 0.351 0.689 0.7 1.042 1.042l53.171 53.171-237.565 89.482-32.041-85.616c-1.994-5.321-6.541-9.271-12.087-10.507-1.198-0.265-2.421-0.401-3.648-0.403-4.398-0.004-8.622 1.717-11.767 4.791-26.993 25.504-69.553 24.295-95.057-2.7-25.504-26.993-24.295-69.553 2.7-95.057 6.35-5.999 13.806-10.702 21.954-13.85 5.352-1.984 10.941-3.249 16.626-3.766 3.497-0.429 7.023-0.546 10.54-0.353 9.271 0.485 17.182-6.636 17.668-15.907 0.122-2.305-0.233-4.61-1.042-6.77l-43.909-117.236 80.051-30.141c10.507 54.705 63.371 90.535 118.077 80.030 5.589-1.074 11.078-2.618 16.407-4.619 52.127-19.777 78.475-77.956 58.954-130.18-1.547-4.135-2.942-7.413-4.287-10.338l77.328-34.243 100.19 267.44z"></path>
</svg>
