<!-- Generated by IcoMoon.io -->
<svg version="1.1" xmlns="http://www.w3.org/2000/svg" width="1024" height="1024" viewBox="0 0 1024 1024">
<title></title>
<g id="icomoon-ignore">
</g>
<path fill="#000" d="M656 72h-224c-8.848 0-16 7.168-16 16s7.152 16 16 16h224c8.848 0 16-7.168 16-16s-7.152-16-16-16z"></path>
<path fill="#000" d="M576 72c-8.848 0-16 7.168-16 16v80c0 8.832 7.152 16 16 16s16-7.168 16-16v-80c0-8.832-7.152-16-16-16z"></path>
<path fill="#000" d="M576 152h-64c-8.848 0-16 7.168-16 16s7.152 16 16 16h64c8.848 0 16-7.168 16-16s-7.152-16-16-16z"></path>
<path fill="#000" d="M512 72c-8.848 0-16 7.168-16 16v80c0 8.832 7.152 16 16 16s16-7.168 16-16v-80c0-8.832-7.152-16-16-16z"></path>
<path fill="#000" d="M432 392h-192c-8.848 0-16 7.168-16 16s7.152 16 16 16h192c8.848 0 16-7.168 16-16s-7.152-16-16-16z"></path>
<path fill="#000" d="M656 360c-8.848 0-16 7.168-16 16v272c0 8.848 7.152 16 16 16s16-7.152 16-16v-272c0-8.832-7.152-16-16-16z"></path>
<path fill="#000" d="M1008 760h-47.664c-8.848 0-16 7.152-16 16s7.152 16 16 16h47.664c8.848 0 16-7.152 16-16s-7.152-16-16-16z"></path>
<path fill="#000" d="M1008 760c-8.848 0-16 7.152-16 16v64c0 8.848 7.152 16 16 16s16-7.152 16-16v-64c0-8.848-7.152-16-16-16z"></path>
<path fill="#000" d="M160 824c-0.016 0-0.032 0-0.048 0l-112 0.336c-8.848 0.032-15.984 7.2-15.952 16.048 0.032 8.832 7.184 15.952 16 15.952 0.016 0 0.032 0 0.048 0l112-0.336c8.848-0.032 15.984-7.2 15.952-16.048-0.032-8.832-7.184-15.952-16-15.952z"></path>
<path fill="#000" d="M992 680h-16c-8.848 0-16 7.152-16 16s7.152 16 16 16h16c8.848 0 16-7.152 16-16s-7.152-16-16-16z"></path>
<path fill="#000" d="M992 568c-8.848 0-16 7.152-16 16v192c0 8.848 7.152 16 16 16s16-7.152 16-16v-192c0-8.848-7.152-16-16-16z"></path>
<path fill="#000" d="M896 360h-240c-8.848 0-16 7.168-16 16s7.152 16 16 16h240c8.848 0 16-7.168 16-16s-7.152-16-16-16z"></path>
<path fill="#000" d="M1006.528 577.296l-96-208c-3.696-8.016-13.168-11.52-21.232-7.824-8.032 3.696-11.52 13.216-7.824 21.232l96 208c2.704 5.856 8.496 9.296 14.544 9.296 2.24 0 4.512-0.464 6.688-1.472 8.032-3.696 11.52-13.216 7.824-21.232z"></path>
<path fill="#000" d="M48 760c-8.848 0-16 7.152-16 16v65.008c0 8.848 7.152 16 16 16s16-7.168 16-16v-65.008c0-8.848-7.152-16-16-16z"></path>
<path fill="#000" d="M16 552c-8.848 0-16 7.152-16 16v208c0 8.848 7.152 16 16 16s16-7.152 16-16v-208c0-8.848-7.152-16-16-16z"></path>
<path fill="#000" d="M656 552h-640c-8.848 0-16 7.152-16 16s7.152 16 16 16h640c8.848 0 16-7.152 16-16s-7.152-16-16-16z"></path>
<path fill="#000" d="M96 760h-80c-8.848 0-16 7.152-16 16s7.152 16 16 16h80c8.848 0 16-7.152 16-16s-7.152-16-16-16z"></path>
<path fill="#000" d="M256 728c-61.744 0-112 50.256-112 112s50.256 112 112 112 112-50.256 112-112-50.256-112-112-112zM256 920c-44.112 0-80-35.888-80-80s35.888-80 80-80c44.112 0 80 35.888 80 80s-35.888 80-80 80z"></path>
<path fill="#000" d="M256 792c-26.464 0-48 21.536-48 48s21.536 48 48 48 48-21.536 48-48-21.536-48-48-48zM256 856c-8.832 0-16-7.168-16-16s7.168-16 16-16 16 7.168 16 16c0 8.832-7.168 16-16 16z"></path>
<path fill="#000" d="M784 792c-26.464 0-48 21.536-48 48s21.536 48 48 48 48-21.536 48-48-21.536-48-48-48zM784 856c-8.832 0-16-7.168-16-16s7.168-16 16-16c8.832 0 16 7.168 16 16s-7.168 16-16 16z"></path>
<path fill="#000" d="M784 728c-61.744 0-112 50.256-112 112s50.256 112 112 112 112-50.256 112-112-50.256-112-112-112zM784 920c-44.112 0-80-35.888-80-80s35.888-80 80-80c44.112 0 80 35.888 80 80s-35.888 80-80 80z"></path>
<path fill="#000" d="M688.4 824h-336.4c-8.848 0-16 7.152-16 16s7.152 16 16 16h336.4c8.848 0 16-7.152 16-16s-7.152-16-16-16z"></path>
<path fill="#000" d="M1008 824h-128c-8.848 0-16 7.152-16 16s7.152 16 16 16h128c8.848 0 16-7.152 16-16s-7.152-16-16-16z"></path>
<path fill="#000" d="M992 568h-192c-8.848 0-16 7.152-16 16s7.152 16 16 16h192c8.848 0 16-7.152 16-16s-7.152-16-16-16z"></path>
<path fill="#000" d="M800 568c-26.464 0-48-21.536-48-48 0-8.832-7.152-16-16-16s-16 7.168-16 16c0 44.112 35.888 80 80 80 8.848 0 16-7.152 16-16s-7.152-16-16-16z"></path>
<path fill="#000" d="M736 360c-8.848 0-16 7.168-16 16v144c0 8.848 7.152 16 16 16s16-7.152 16-16v-144c0-8.832-7.152-16-16-16z"></path>
<path fill="#000" d="M656 72c-8.848 0-16 7.168-16 16v480c0 8.848 7.152 16 16 16s16-7.152 16-16v-480c0-8.832-7.152-16-16-16z"></path>
<path fill="#000" d="M432 72c-8.848 0-16 7.168-16 16v480c0 8.848 7.152 16 16 16s16-7.152 16-16v-480c0-8.832-7.152-16-16-16z"></path>
<path fill="#000" d="M240 200c-8.848 0-16 7.168-16 16v352c0 8.848 7.152 16 16 16s16-7.152 16-16v-352c0-8.832-7.152-16-16-16z"></path>
<path fill="#000" d="M336 392c-8.848 0-16 7.168-16 16v48c0 8.832 7.152 16 16 16s16-7.168 16-16v-48c0-8.832-7.152-16-16-16z"></path>
<path fill="#000" d="M432 200h-192c-8.848 0-16 7.168-16 16s7.152 16 16 16h192c8.848 0 16-7.168 16-16s-7.152-16-16-16z"></path>
<path fill="#000" d="M336 200c-8.848 0-16 7.168-16 16v32c0 8.832 7.152 16 16 16s16-7.168 16-16v-32c0-8.832-7.152-16-16-16z"></path>
<path fill="#000" d="M48 312c-8.848 0-16 7.168-16 16v240c0 8.848 7.152 16 16 16s16-7.152 16-16v-240c0-8.832-7.152-16-16-16z"></path>
<path fill="#000" d="M240 312h-192c-8.848 0-16 7.168-16 16s7.152 16 16 16h192c8.848 0 16-7.168 16-16s-7.152-16-16-16z"></path>
<path fill="#000" d="M112 312c-8.848 0-16 7.168-16 16v48c0 8.832 7.152 16 16 16s16-7.168 16-16v-48c0-8.832-7.152-16-16-16z"></path>
<path fill="#000" d="M176 360h-64c-8.848 0-16 7.168-16 16s7.152 16 16 16h64c8.848 0 16-7.168 16-16s-7.152-16-16-16z"></path>
<path fill="#000" d="M176 312c-8.848 0-16 7.168-16 16v48c0 8.832 7.152 16 16 16s16-7.168 16-16v-48c0-8.832-7.152-16-16-16z"></path>
</svg>
