<!-- Generated by IcoMoon.io -->
<svg version="1.1" xmlns="http://www.w3.org/2000/svg" width="1024" height="1024" viewBox="0 0 1024 1024">
<title></title>
<g id="icomoon-ignore">
</g>
<path fill="#000" d="M404 356.944c-25.946 0-47.056 21.108-47.056 47.056 0 25.946 21.11 47.054 47.056 47.054s47.054-21.108 47.054-47.054c0-25.948-21.108-47.056-47.054-47.056zM404 421.054c-9.404 0-17.056-7.65-17.056-17.054 0-9.406 7.652-17.056 17.056-17.056s17.054 7.65 17.054 17.056c0 9.404-7.65 17.054-17.054 17.054z"></path>
<path fill="#000" d="M620 572.944c-25.946 0-47.056 21.108-47.056 47.056 0 25.946 21.11 47.054 47.056 47.054s47.054-21.108 47.054-47.054c0-25.948-21.108-47.056-47.054-47.056zM620 637.054c-9.404 0-17.056-7.65-17.056-17.054 0-9.406 7.652-17.056 17.056-17.056s17.054 7.65 17.054 17.056c0 9.404-7.65 17.054-17.054 17.054z"></path>
<path fill="#000" d="M512 1024c282.968 0 512-228.994 512-512 0-282.966-228.992-512-512-512-49.238 0-98.010 7.016-144.96 20.85-7.946 2.342-12.49 10.682-10.148 18.628s10.676 12.49 18.628 10.148c44.196-13.022 90.114-19.626 136.48-19.626 266.388 0 482 215.576 482 482 0 266.386-215.576 482-482 482-266.386 0-482-215.576-482-482 0-192.806 114.464-366.66 291.61-442.912 7.61-3.276 11.122-12.098 7.846-19.708s-12.1-11.122-19.708-7.846c-188.164 80.994-309.748 265.664-309.748 470.466 0 282.966 228.994 512 512 512z"></path>
<path fill="#000" d="M717.162 810.070c-6.816 4.708-8.528 14.048-3.82 20.866 4.706 6.816 14.046 8.528 20.866 3.82 106.318-73.416 169.792-194.072 169.792-322.756 0-82.938-25.712-162.278-74.358-229.442-5.412-7.47-16.234-8.33-22.754-1.808l-526.138 526.138c-6.522 6.522-5.662 17.344 1.808 22.754 67.166 48.646 146.506 74.358 229.442 74.358 59.044 0 115.85-12.874 168.838-38.264 7.472-3.58 10.626-12.538 7.046-20.008s-12.536-10.626-20.008-7.046c-111.23 53.298-245.616 46.97-353.17-23.32l82.15-82.15c18.234-0.48 35.456 8.27 45.802 23.606 33.088 49.056 105.496 49.204 138.686 0 12.058-17.876 33.53-26.774 54.772-22.648 58.020 11.266 109.382-39.722 98.040-98.128-4.11-21.168 4.786-42.638 22.664-54.698 23.086-15.574 36.87-41.496 36.87-69.342 0-27.848-13.782-53.772-36.87-69.344-15.338-10.346-24.088-27.572-23.606-45.802l82.148-82.15c38.418 58.784 58.638 126.626 58.638 197.294 0 118.828-58.63 230.254-156.838 298.070zM740.042 467.528c15.026 10.136 23.644 26.346 23.644 44.472s-8.618 34.336-23.646 44.472c-27.876 18.804-41.746 52.28-35.32 85.362 7.252 37.35-25.428 70.158-62.96 62.872-33-6.408-66.484 7.46-85.288 35.336-21.168 31.382-67.528 31.75-88.944 0-10.864-16.106-26.592-27.572-44.39-33.114l283.79-283.79c5.54 17.798 17.006 33.526 33.114 44.39z"></path>
<path fill="#000" d="M741.44 194.356c-67.162-48.644-146.502-74.356-229.44-74.356-216.15 0-392 175.85-392 392 0 82.936 25.712 162.274 74.356 229.44 5.416 7.476 16.234 8.33 22.754 1.808l526.136-526.136c6.526-6.524 5.664-17.346-1.806-22.756zM283.958 556.47c-31.382-21.168-31.748-67.526 0-88.944 27.876-18.802 41.746-52.28 35.322-85.362-7.24-37.286 25.372-70.166 62.96-62.872 33.002 6.41 66.486-7.46 85.288-35.336 21.17-31.384 67.528-31.748 88.944 0 10.866 16.106 26.59 27.572 44.388 33.112l-283.788 283.792c-5.542-17.798-17.008-33.526-33.114-44.39zM627.144 290.79c-18.224 0.48-35.456-8.27-45.802-23.606-33.088-49.056-105.496-49.204-138.686 0-12.060 17.878-33.528 26.774-54.772 22.648-58.014-11.268-109.382 39.722-98.040 98.128 4.11 21.168-4.786 42.638-22.664 54.698-49.054 33.088-49.202 105.498 0 138.686 15.338 10.344 24.086 27.57 23.606 45.8l-82.15 82.15c-38.416-58.786-58.636-126.626-58.636-197.294 0-199.608 162.392-362 362-362 70.668 0 138.51 20.218 197.294 58.638z"></path>
</svg>
