<!-- Generated by IcoMoon.io -->
<svg version="1.1" xmlns="http://www.w3.org/2000/svg" width="1024" height="1024" viewBox="0 0 1024 1024">
<title></title>
<g id="icomoon-ignore">
</g>
<path fill="#000" d="M848 336h-96c-26.497 0.032-47.968 21.503-48 47.997v16.003h-48.712c-8.476-90.072-83.716-159.999-175.288-160h-40.638c5.531-15.55 8.727-33.486 8.727-52.168 0-84.056-64.699-153.001-147.014-159.752l-0.575-0.038c-0.373-0.031-0.806-0.048-1.244-0.048-8.837 0-16 7.163-16 16 0 1.472 0.199 2.897 0.571 4.251l-0.026-0.112 26.862 100.268-61.818 16.56-26.868-100.26c-1.889-6.885-8.091-11.86-15.455-11.86-3.385 0-6.524 1.051-9.11 2.845l0.053-0.035c-42.165 29.251-69.427 77.409-69.427 131.935 0 66.793 40.909 124.031 99.038 148.026l1.064 0.389h-36.138c-0.007 0-0.016 0-0.025 0-35.332 0-63.974 28.642-63.974 63.974 0 19.091 8.362 36.229 21.624 47.951l0.068 0.059c-1 0.892-2 1.814-2.96 2.776-11.575 11.573-18.734 27.562-18.734 45.223 0 19.089 8.363 36.224 21.626 47.941l0.069 0.059c-1 0.892-2 1.814-2.96 2.776-11.581 11.528-18.748 27.483-18.748 45.112 0 0.475 0.005 0.948 0.016 1.42l-0.001-0.070c0.6 31.874 25.414 58.276 56.848 62.258-5.568 9.27-8.862 20.456-8.862 32.412 0 0.468 0.005 0.934 0.015 1.4l-0.001-0.069c0.66 34.616 29.862 62.778 65.1 62.778h115.344l48.942 182.666c9.346 34.567 40.427 59.581 77.35 59.581 44.183 0 80-35.817 80-80 0-7.464-1.022-14.689-2.934-21.543l0.134 0.563-37.844-141.266h37.908c56.186-0.074 102.688-41.444 110.786-95.383l0.076-0.617h33.138v16c0.032 26.497 21.503 47.968 47.997 48h96.003c8.837 0 16-7.163 16-16v0-352c0-8.837-7.163-16-16-16v0zM275.062 324.636c-1.605-5.853-6.302-10.302-12.182-11.524l-0.104-0.018c-59.015-12.208-102.743-63.757-102.743-125.519 0-35.349 14.324-67.353 37.485-90.523v0l24.556 91.646c1.889 6.885 8.091 11.86 15.455 11.86 1.474 0 2.902-0.199 4.257-0.573l-0.112 0.026 92.726-24.846c6.885-1.889 11.86-8.091 11.86-15.455 0-1.474-0.199-2.902-0.573-4.257l0.026 0.112-24.558-91.644c55.080 15.127 94.878 64.753 94.878 123.674 0 38.191-16.72 72.476-43.238 95.936l-0.136 0.118c-3.327 2.946-5.414 7.228-5.414 11.997 0 1.473 0.199 2.9 0.572 4.255l-0.026-0.112 9.702 36.2h-99.386zM529.028 901.546c1.037 3.724 1.634 8 1.634 12.416 0 26.51-21.491 48.001-48.001 48.001-22.094 0-40.702-14.928-46.288-35.248l-0.079-0.337-46.722-174.378h99.39zM656 624c-8.837 0-16 7.163-16 16v0c-0.051 44.162-35.838 79.949-79.995 80h-318.905c-17.924 0-32.774-14.078-33.102-31.364-0.004-0.184-0.006-0.401-0.006-0.618 0-17.68 14.329-32.012 32.007-32.018h96.001c8.837 0 16-7.163 16-16s-7.163-16-16-16v0h-142.9c-17.924 0-32.774-14.078-33.102-31.364-0.004-0.184-0.006-0.401-0.006-0.618 0-17.68 14.329-32.012 32.007-32.018h96.001c8.837 0 16-7.163 16-16s-7.163-16-16-16v0h-96c-17.673 0-32-14.327-32-32s14.327-32 32-32v0h96c8.837 0 16-7.163 16-16s-7.163-16-16-16v0h-96c-17.673 0-32-14.327-32-32s14.327-32 32-32v0h304c8.837 0 16-7.163 16-16s-7.163-16-16-16v0h-85.378l-9.444-35.246c8.504-8.479 16.062-17.899 22.507-28.092l0.391-0.662h55.924c0.004 0 0.008 0 0.012 0 79.522 0 143.988 64.466 143.988 143.988 0 0.004 0 0.008 0 0.013v-0.001c0 8.837 7.163 16 16 16v0h64v192zM832 688h-80c-8.832-0.010-15.99-7.168-16-15.999v-288.001c0.010-8.832 7.168-15.99 15.999-16h80.001z"></path>
</svg>
