<!-- Generated by IcoMoon.io -->
<svg version="1.1" xmlns="http://www.w3.org/2000/svg" width="1024" height="1024" viewBox="0 0 1024 1024">
<title></title>
<g id="icomoon-ignore">
</g>
<path fill="#000" d="M512 0c-282.334 0-512 229.666-512 512s229.666 512 512 512 512-229.666 512-512-229.666-512-512-512zM676.416 527.084l-234.666 234.666c-4.084 4.084-9.542 6.25-15.084 6.25-2.75 0-5.542-0.542-8.166-1.626-7.958-3.292-13.166-11.084-13.166-19.708v-64c0-5.666 2.25-11.084 6.25-15.084l155.582-155.582-155.584-155.584c-4-4-6.25-9.416-6.25-15.084v-64c0-8.626 5.208-16.416 13.166-19.708 7.958-3.208 17.166-1.458 23.25 4.626l234.666 234.666c8.336 8.334 8.336 21.834 0.002 30.168z"></path>
</svg>
