<!-- Generated by IcoMoon.io -->
<svg version="1.1" xmlns="http://www.w3.org/2000/svg" width="1024" height="1024" viewBox="0 0 1024 1024">
<title></title>
<g id="icomoon-ignore">
</g>
<path fill="#000" d="M992 256h-960c-17.673 0-32-14.327-32-32s14.327-32 32-32v0h960c17.673 0 32 14.327 32 32s-14.327 32-32 32v0z"></path>
<path fill="#000" d="M992 576h-960c-17.673 0-32-14.327-32-32s14.327-32 32-32v0h960c17.673 0 32 14.327 32 32s-14.327 32-32 32v0z"></path>
<path fill="#000" d="M992 896h-960c-17.673 0-32-14.327-32-32s14.327-32 32-32v0h960c17.673 0 32 14.327 32 32s-14.327 32-32 32v0z"></path>
</svg>
