<!-- Generated by IcoMoon.io -->
<svg version="1.1" xmlns="http://www.w3.org/2000/svg" width="1024" height="1024" viewBox="0 0 1024 1024">
<title></title>
<g id="icomoon-ignore">
</g>
<path fill="#e52d27" d="M1024 512c0 282.77-229.23 512-512 512s-512-229.23-512-512c0-282.77 229.23-512 512-512s512 229.23 512 512z"></path>
<path fill="#fff" d="M302.455 290.031h419.123c58.778 0 106.428 47.649 106.428 106.428v231.049c0 58.778-47.649 106.428-106.428 106.428h-419.123c-58.778 0-106.428-47.649-106.428-106.428v-231.049c0-58.778 47.649-106.428 106.428-106.428z"></path>
<path fill="#e52d27" d="M428.203 599.962c0.307-58.982 0.58-116.975 0.853-175.923l166.741 86.596z"></path>
</svg>
